<?xml version="1.0" encoding="UTF-8"?>
<svg version="1.1" viewBox="0 0 1600 1600" width="1280" height="1280" xmlns="http://www.w3.org/2000/svg">
<path transform="translate(276 768)" d="m0 0c1.12-0 1.12-0 2.26-0.01 2.51 0 5.01 0 7.52 0.01 1.82-0.01 3.64-0.01 5.46-0.01 5.02-0.01 10 0 15.1 0 5.45 0 10.9-0.01 16.4-0.01 10.8-0.01 21.7-0.01 32.5-0.01 13 0 25.9-0.01 38.9-0.02 30.6-0.01 61.2-0.02 91.8-0.02 15.6-0.01 31.1-0.01 46.7-0.01 49.9-0.02 99.9-0.03 150-0.03h7.16 14.4 16.8 4.81c51.5-0.01 103-0.02 155-0.04 37-0.02 74-0.04 111-0.04h2.31c16.7 0 33.4 0 50.1-0.01h17.9 4.47c23.7 0 47.4-0.01 71.1-0.02 24.6-0.02 49.1-0.02 73.6-0.01 14.2 0 28.3 0 42.5-0.02 9.45-0.01 18.9-0.01 28.3 0 5.39 0.01 10.8 0.01 16.2 0 4.91-0.01 9.81-0.01 14.7 0 1.76 0 3.52 0 5.28-0.01 17.6-0.07 32.1 2.56 45.2 15 10.2 10.7 13.4 22.8 13.4 37.3 0 1 0 1.99 0.01 3.02v10.1c0.01 2.43 0.01 4.85 0.01 7.28 0.01 5.97 0.02 12 0.02 17.9 0 7.16 0.01 14.3 0.02 21.5 0.02 17.3 0.03 34.6 0.04 51.9 0 8.18 0.01 16.4 0.01 24.6 0.02 28 0.04 56 0.04 84.1 0.01 1.75 0.01 3.51 0.01 5.27v2.65 13.2 2.66c0.01 28.4 0.03 56.9 0.07 85.3 0.03 30.1 0.05 60.1 0.05 90.2v9.9 2.47c0.01 13.1 0.02 26.2 0.04 39.2 0.02 13.2 0.03 26.3 0.02 39.4-0.01 7.81 0 15.6 0.02 23.4 0.02 5.84 0.01 11.7 0 17.5-0.01 2.35 0 4.71 0.01 7.07 0.09 18.6-1.45 33.7-14.5 48.1-13 12.4-28.7 13.6-45.8 13.6-1.83 0-3.65 0.01-5.48 0.01-5.04 0.01-10.1 0.01-15.1 0-5.47 0-10.9 0-16.4 0.01-9.6 0.01-19.2 0.01-28.8 0.01-14.3-0.01-28.5 0-42.8 0.01-26.2 0.01-52.4 0.01-78.7 0.01h-11.2-2.24-49.1c-3.73 0-7.46 0.01-11.2 0.01h-4.5-2.25-4.51c-42.6 0.01-85.3 0.01-128 0.01h-2.39c-8.81 0-17.6 0-26.4-0.01h-2.41-9.65c-50.8 0-102 0.01-153 0.02-12.8 0.01-25.6 0.01-38.4 0.02h-2.39c-24.3 0.01-48.6 0.01-72.9 0.01h-2.32-50.3-18-4.47c-23.8 0-47.5 0.01-71.3 0.02-24.6 0.01-49.2 0.01-73.8 0-14.2-0.01-28.4-0.01-42.6 0.01-9.47 0-19 0-28.4-0.01-5.4-0.01-10.8-0.01-16.2 0-4.91 0.01-9.83 0.01-14.7 0-1.77-0.01-3.53 0-5.3 0-16.3 0.07-30.9-1.91-43.3-13.5-14.8-15.8-14.7-33.2-14.6-53.6 0-2.42 0-4.84-0.01-7.26-0.01-5.25-0.01-10.5 0-15.7 0.01-7.81 0-15.6-0.01-23.4-0.01-13.9-0.01-27.9 0-41.8 0.01-12.2 0.01-24.4 0-36.6v-2.45-9.86c-0.01-30.8 0-61.6 0.02-92.5 0.01-27.4 0.01-54.7-0.01-82.1-0.01-30.8-0.02-61.5-0.01-92.3v-9.84-2.45c0.01-12.2 0-24.4 0-36.6-0.01-13.9-0.01-27.7 0.01-41.6 0.01-7.75 0.01-15.5-0.01-23.3 0-5.79 0.01-11.6 0.02-17.4 0-2.34 0-4.68-0.01-7.02-0.05-19.1 1.12-35.3 14.9-49.8 10.8-9.98 22.7-13.5 37.2-13.5zm181 96.1-9 26c-2.57 5.48-5.11 10.7-8 16-0.47 0.93-0.94 1.85-1.41 2.81-12.2 23.9-31.3 44.2-52.6 60.2-0.79 0.6-1.57 1.2-2.38 1.83-19.4 14.3-40.9 22.6-63.6 30.2v206c4.56 1.71 9.06 3.36 13.7 4.89 33.4 11.2 64.8 32 86.3 60.1 0.81 1 1.61 2.01 2.45 3.04 16.6 20.7 25.8 43.8 34.6 69h686c2.4-6.41 2.4-6.41 4.65-12.9 8.71-25.4 21.7-47 39.4-67.1 0.64-0.77 1.29-1.54 1.96-2.34 3.98-4.71 8.31-8.7 13-12.7 0.85-0.75 1.7-1.5 2.57-2.28 20.9-18.1 46.2-30.9 72.8-38.2 1.64-0.38 1.64-0.38 2.62-1.51 0.09-2.66 0.13-5.29 0.12-7.94v-2.55c0-2.85-0.01-5.69-0.01-8.54v-6.09c0-5.52-0.01-11-0.01-16.6-0.01-5.77-0.01-11.5-0.01-17.3 0-10.9-0.01-21.9-0.02-32.8-0.01-12.4-0.02-24.9-0.02-37.3-0.01-25.6-0.03-51.2-0.05-76.8-0.66-0.23-1.32-0.46-2-0.69-3.02-1.04-6.04-2.08-9.06-3.13-1.04-0.35-2.08-0.71-3.15-1.08-7.42-2.57-14.6-5.37-21.6-8.85-1.03-0.51-2.06-1.01-3.12-1.53-13.8-6.89-26.5-15.5-38.1-25.7-0.52-0.46-1.04-0.92-1.58-1.39-18.3-16.2-32.3-34.9-43.4-56.6-0.33-0.62-0.65-1.24-0.98-1.88-5.99-11.6-9.68-23.6-14-36.1h-686z" fill="#000100"/>
<path transform="translate(863 167)" d="m0 0c0.82 0.75 1.64 1.51 2.49 2.28 0.8 0.73 1.61 1.47 2.43 2.22 17.5 16.7 27.6 40.4 28.8 64.4 0.07 3.94 0.07 7.88 0.05 11.8v4.5c0 4.03-0.01 8.05-0.03 12.1-0.01 4.23-0.01 8.45-0.01 12.7-0.01 7.98-0.02 16-0.04 24-0.03 9.09-0.04 18.2-0.05 27.3-0.02 18.7-0.05 37.4-0.1 56.1 1.24-0.01 2.48-0.01 3.76-0.02 11.7-0.06 23.4-0.1 35.1-0.13 6.02-0.02 12-0.04 18.1-0.08 5.81-0.03 11.6-0.05 17.4-0.05 2.22-0.01 4.43-0.02 6.64-0.04 19.2-0.13 35.2 1.12 49.7 14.9 9.5 10 13.6 22.5 13.5 36.1-0.93 14.3-7.49 25.3-17.5 35.2-0.82 0.82-1.64 1.65-2.49 2.51-2.25 2.27-4.52 4.54-6.79 6.79-2.45 2.45-4.89 4.91-7.33 7.37-4.78 4.81-9.57 9.6-14.4 14.4-3.9 3.9-7.8 7.8-11.7 11.7-0.56 0.56-1.11 1.12-1.69 1.69-1.13 1.13-2.26 2.27-3.38 3.4-10.6 10.6-21.2 21.2-31.8 31.8-9.68 9.66-19.3 19.3-29 29-9.92 9.97-19.9 19.9-29.8 29.9-5.58 5.57-11.2 11.2-16.7 16.7-4.73 4.76-9.48 9.51-14.2 14.2-2.43 2.41-4.85 4.82-7.25 7.26-13.6 13.8-25.8 24.9-46 25.6-22.4-0.51-35-14.4-49.8-29.3-1.96-1.96-3.93-3.92-5.89-5.87-4.76-4.74-9.51-9.5-14.2-14.2-3.85-3.87-7.71-7.74-11.6-11.6l-5.03-5.03c-9.9-9.89-19.8-19.8-29.6-29.7-9.57-9.59-19.2-19.2-28.7-28.8-10.5-10.4-20.9-20.9-31.4-31.4-1.12-1.11-2.23-2.23-3.35-3.35-0.55-0.55-1.1-1.09-1.66-1.66-3.85-3.86-7.71-7.71-11.6-11.6-4.71-4.69-9.41-9.4-14.1-14.1-2.39-2.41-4.79-4.8-7.19-7.2-2.61-2.59-5.2-5.21-7.79-7.82-0.76-0.74-1.51-1.49-2.28-2.26-9.99-10.1-15.7-21.8-16.2-36.1 0.19-13.5 5.52-25.3 14.7-35 11.3-10.4 23.5-13.5 38.5-13.4h2.99c3.25 0 6.5 0.01 9.74 0.01 2.26 0.01 4.51 0.01 6.77 0.01 5.93 0 11.9 0.01 17.8 0.02 6.06 0.01 12.1 0.02 18.2 0.02 11.9 0.01 23.7 0.03 35.6 0.05 0-0.75 0-1.51-0.01-2.29-0.06-18.5-0.11-36.9-0.14-55.4-0.02-8.93-0.04-17.9-0.07-26.8-0.03-7.79-0.05-15.6-0.06-23.4 0-4.11-0.01-8.23-0.04-12.4-0.16-31.1 1.22-59.9 22.3-84.8 0.69-0.82 1.38-1.65 2.1-2.5 14.1-16.3 34.4-28.2 55.9-31.5 0.68-0.11 1.35-0.22 2.05-0.33 27.1-3.71 55.7 4.05 76.5 22z" fill="#000100"/>
<path transform="translate(888,990)" d="m0 0c1.03 0.82 2.07 1.64 3.13 2.48 28.4 22.9 46.4 55.5 51.9 91.5 0.13 0.8 0.26 1.61 0.39 2.44 4.64 35.6-5.18 73.8-26.6 103-2.19 2.73-4.44 5.37-6.75 7.99-0.72 0.84-1.44 1.68-2.18 2.55-14 16.1-30.5 27.7-49.8 36.4-1.17 0.54-2.33 1.09-3.53 1.65-34.6 15.1-74.2 13.2-109-0.04-35.9-14.3-62.8-42.8-78.5-77.7-4.99-11.7-8.64-24.3-10-37-0.11-0.96-0.22-1.91-0.33-2.9-3.83-38.8 7.13-77 31.8-107 7.09-8.53 14.6-16.1 23.5-22.8 1.44-1.09 1.44-1.09 2.91-2.2 50.7-36.7 124-37.9 173 2.2z" fill="#146CB3"/>
</svg>
